<?xml version="1.0" encoding="utf-8"?>
<svg version="1.1" width="100%" height="100%" viewBox="0 0 1000 600" xmlns="http://www.w3.org/2000/svg">
  <rect width="779.412" height="268.552" y="151.584" fill="rgba(0,0,0,0)" style="" x="106.335"/>
  <g>
    <rect width="333.3333333333333" height="333.3333333333333" y="203.38314497886594" fill="#f6b042" transform="matrix(0.6899943297829246,0,0,0.6899943297829247,0,44.66773646714695)" x="181.16090393066403"/>
    <path d="M390.10794272436334 346.6257440786968Q378.56066445082473 346.6257440786968 360.70966106518057 347.85783580515385Q342.85865767953646 349.1185808275749 337.7010644059956 350.55124562578067L337.7010644059956 350.55124562578067Q337.0993451907492 352.41370986344816 337.0993451907492 354.0469477334028L337.0993451907492 354.0469477334028Q337.0993451907492 356.5397844822809 337.9302907737086 357.97244928048667L337.9302907737086 357.97244928048667L375.4661084867002 357.57130313698906Q377.72971886786536 357.57130313698906 377.72971886786536 368.9180083387789L377.72971886786536 368.9180083387789L377.72971886786536 415.5369208723953Q377.72971886786536 422.55697838360356 374.9503491593461 426.1672936750822Q372.1709794508269 429.7776089665608 364.3199763566592 431.84064627597706L364.3199763566592 431.84064627597706Q355.6666809754962 434.1042566571423 337.7010644059956 434.1042566571423L337.7010644059956 434.1042566571423Q329.878714607792 434.1042566571423 325.6380268051029 432.35640560333115Q321.4259922983779 430.60855454952014 319.6494879486027 426.36786674683094Q317.90163689479164 422.12717894414186 317.90163689479164 414.30482914593824L317.90163689479164 414.30482914593824L317.90163689479164 324.56270618632766Q317.70106382304283 312.18448232982973 328.2168234418733 309.29049943745395L328.2168234418733 309.29049943745395Q340.5950472983713 305.79479732983185 367.01338617728607 305.3649978903701L367.01338617728607 305.3649978903701Q386.1824411772795 305.79479732983185 392.6007794732414 306.82631598454003L392.6007794732414 306.82631598454003Q393.4030717602367 304.5340523074108 393.4030717602367 302.0698688544968L393.4030717602367 302.0698688544968Q393.4030717602367 298.97531289037227 392.1709800337797 296.51112943745835L392.1709800337797 296.51112943745835Q379.79275617728166 295.0498113432884 365.7812944508291 295.0498113432884L365.7812944508291 295.0498113432884Q357.52914521316376 295.0498113432884 350.82427395756065 295.2503844150373Q344.11940270195754 295.47961078275017 336.067826536041 296.0813299979966L336.067826536041 296.0813299979966Q326.98473171541633 296.91227558095596 320.0792873880644 298.57416674687465Q313.17384306071256 300.2074046168293 306.7555047647506 303.30196058095373L306.7555047647506 303.30196058095373Q300.165246693004 306.39651654507827 296.66954458538186 311.7546828903679Q293.1451891817956 317.14150253162165 293.1451891817956 323.5311875316195L293.1451891817956 323.5311875316195L293.1451891817956 417.1988120383139Q292.9446161100468 427.71457165714446 296.0391720741713 433.70311051364456Q299.1337280382958 439.6629960741807 306.2397454373965 442.3564058948076Q313.37441613246136 445.0498157154344 325.95321306070815 445.0498157154344L325.95321306070815 445.0498157154344Q366.81281310553726 445.0498157154344 384.7497763790737 438.6314774194725L384.7497763790737 438.6314774194725Q402.4861665808614 432.0412193477259 402.4861665808614 416.56843952710335L402.4861665808614 416.56843952710335L402.4861665808614 355.5082658275727Q402.6867396526102 351.3821912087401 401.7698341817585 349.5197269710725Q400.8529287109068 347.657262733405 398.36009196202866 347.1415034060509Q395.89590850911475 346.6257440786968 390.10794272436334 346.6257440786968L390.10794272436334 346.6257440786968Z " fill="#533549" transform="matrix(0.6899943297829246,0,0,0.6899943297829247,0,44.66773646714695)"/>
    <path d="M694.8025380612772 346.6257440786968Q683.2552597877386 346.6257440786968 665.4042564020946 347.85783580515385Q647.5532530164504 349.1185808275749 642.3956597429095 350.55124562578067L642.3956597429095 350.55124562578067Q641.7939405276632 352.41370986344816 641.7939405276632 354.0469477334028L641.7939405276632 354.0469477334028Q641.7939405276632 356.5397844822809 642.6248861106225 357.97244928048667L642.6248861106225 357.97244928048667L680.1607038236142 357.57130313698906Q682.4243142047793 357.57130313698906 682.4243142047793 368.9180083387789L682.4243142047793 368.9180083387789L682.4243142047793 415.5369208723953Q682.4243142047793 422.55697838360356 679.6449444962601 426.1672936750822Q676.8655747877408 429.7776089665608 669.0145716935731 431.84064627597706L669.0145716935731 431.84064627597706Q660.3612763124102 434.1042566571423 642.3956597429095 434.1042566571423L642.3956597429095 434.1042566571423Q634.573309944706 434.1042566571423 630.3326221420168 432.35640560333115Q626.1205876352918 430.60855454952014 624.3440832855166 426.36786674683094Q622.5962322317056 422.12717894414186 622.5962322317056 414.30482914593824L622.5962322317056 414.30482914593824L622.5962322317056 324.56270618632766Q622.3956591599568 312.18448232982973 632.9114187787873 309.29049943745395L632.9114187787873 309.29049943745395Q645.2896426352853 305.79479732983185 671.7079815142 305.3649978903701L671.7079815142 305.3649978903701Q690.8770365141934 305.79479732983185 697.2953748101553 306.82631598454003L697.2953748101553 306.82631598454003Q698.0976670971506 304.5340523074108 698.0976670971506 302.0698688544968L698.0976670971506 302.0698688544968Q698.0976670971506 298.97531289037227 696.8655753706936 296.51112943745835L696.8655753706936 296.51112943745835Q684.4873515141957 295.0498113432884 670.4758897877431 295.0498113432884L670.4758897877431 295.0498113432884Q662.2237405500777 295.0498113432884 655.5188692944746 295.2503844150373Q648.8139980388715 295.47961078275017 640.762421872955 296.0813299979966L640.762421872955 296.0813299979966Q631.6793270523302 296.91227558095596 624.7738827249783 298.57416674687465Q617.8684383976264 300.2074046168293 611.4501001016646 303.30196058095373L611.4501001016646 303.30196058095373Q604.8598420299179 306.39651654507827 601.3641399222957 311.7546828903679Q597.8397845187095 317.14150253162165 597.8397845187095 323.5311875316195L597.8397845187095 323.5311875316195L597.8397845187095 417.1988120383139Q597.6392114469608 427.71457165714446 600.7337674110853 433.70311051364456Q603.8283233752097 439.6629960741807 610.9343407743105 442.3564058948076Q618.0690114693753 445.0498157154344 630.647808397622 445.0498157154344L630.647808397622 445.0498157154344Q671.5074084424512 445.0498157154344 689.4443717159876 438.6314774194725L689.4443717159876 438.6314774194725Q707.1807619177753 432.0412193477259 707.1807619177753 416.56843952710335L707.1807619177753 416.56843952710335L707.1807619177753 355.5082658275727Q707.3813349895241 351.3821912087401 706.4644295186724 349.5197269710725Q705.5475240478207 347.657262733405 703.0546872989427 347.1415034060509Q700.5905038460287 346.6257440786968 694.8025380612772 346.6257440786968L694.8025380612772 346.6257440786968ZM828.2982439580926 441.12431416835057Q828.899963173339 439.26184993068307 828.899963173339 437.59995876476444L828.899963173339 437.59995876476444Q828.899963173339 435.13577531185035 828.0690175903796 433.70311051364456L828.0690175903796 433.70311051364456L813.8569827921782 434.1042566571423Q811.564719115049 434.1042566571423 811.564719115049 422.7575514553524L811.564719115049 422.7575514553524L811.564719115049 351.3821912087401Q811.564719115049 343.3306150428235 806.5217390253646 339.8349129352014Q801.4787589356803 336.31055753161513 790.3326268056393 336.31055753161513L790.3326268056393 336.31055753161513Q755.8627117608079 336.31055753161513 729.6735992496061 344.56270676928045L729.6735992496061 344.56270676928045Q728.8426536666468 346.02402486345045 728.8426536666468 348.68878138811317L728.8426536666468 348.68878138811317Q728.8426536666468 351.3821912087401 729.874172321355 353.84637466165395L729.874172321355 353.84637466165395Q734.6306194513982 352.41370986344816 749.673599832559 349.5197269710725L749.673599832559 349.5197269710725Q767.008843890849 346.6257440786968 772.7968096756005 346.6257440786968L772.7968096756005 346.6257440786968Q782.0804775679738 346.6257440786968 785.0604203482419 349.1185808275749Q788.0690164244741 351.58276428048885 788.0690164244741 359.43376737465655L788.0690164244741 359.43376737465655L788.0690164244741 375.5082664105255Q767.4386433303107 376.5397850652337 744.5160065590181 380.0641404688199L744.5160065590181 380.0641404688199Q735.0317655948958 382.1271777782363 730.7051179043143 386.96958479617183Q726.3784702137328 391.8119918141074 726.3784702137328 400.4652871952703L726.3784702137328 400.4652871952703L726.3784702137328 429.347809527099Q726.3784702137328 438.02975820422614 731.1062640478119 441.5254603118482Q735.8627111778552 445.0498157154344 747.209416379645 445.0498157154344L747.209416379645 445.0498157154344Q764.3440873661863 445.0498157154344 788.0690164244741 438.2303312759749L788.0690164244741 438.2303312759749Q788.0690164244741 441.32488724009943 788.8713087114693 442.67159215041283Q789.7022542944286 444.01829706072635 792.281050931199 444.53405638808033Q794.8598475679695 445.0498157154344 800.4472402809721 445.0498157154344L800.4472402809721 445.0498157154344Q815.0890745186352 445.0498157154344 828.2982439580926 441.12431416835057L828.2982439580926 441.12431416835057ZM788.0690164244741 428.9466633836014Q772.5962366038516 433.4738841459317 762.8827692720164 433.4738841459317L762.8827692720164 433.4738841459317Q749.9028262002719 433.4738841459317 749.9028262002719 424.1902162535582L749.9028262002719 424.1902162535582L749.9028262002719 401.29623277822975Q749.9028262002719 394.0756021952725 752.5675827249346 392.01256488585625L752.5675827249346 392.01256488585625Q756.2925112002697 388.9180089217317 766.6076977473514 387.0555446840642L766.6076977473514 387.0555446840642Q776.7223112226842 385.2217337423608 788.0690164244741 384.791934302899L788.0690164244741 384.791934302899L788.0690164244741 428.9466633836014ZM841.7079864692988 306.19594347332946Q843.9715968504639 306.19594347332946 843.9715968504639 317.54264867511927L843.9715968504639 317.54264867511927L843.9715968504639 422.3564053118548Q843.9715968504639 431.2102737647666 846.5503934872344 435.9667208948098Q849.1291901240048 440.69451472888886 854.888502612792 442.7575520383052Q860.6764683975434 444.8205893477216 871.1922280163739 444.8205893477216L871.1922280163739 444.8205893477216Q902.9687332405782 444.8205893477216 917.2094213347438 439.6629960741807L917.2094213347438 439.6629960741807Q931.4501094289093 434.30482972889104 931.4501094289093 421.926605872393L931.4501094289093 421.926605872393L931.4501094289093 351.98391042398646Q931.4501094289093 343.5311881145723 926.6936622988661 339.92087282309376Q921.937215168823 336.31055753161513 910.5905099670331 336.31055753161513L910.5905099670331 336.31055753161513Q908.1263265141191 336.31055753161513 901.93721458587 336.74035697107695L901.93721458587 336.74035697107695Q896.1492488011187 337.3420761863233 882.2237469625585 341.1529645495507Q868.2982451239982 344.99250620874227 867.495952837003 345.193079280491L867.495952837003 345.193079280491L867.495952837003 304.13290616391316Q867.6965259087518 299.80625847333164 866.980193509649 298.05840741952056Q866.2352078145819 296.28190306974545 863.7710243616679 295.76614374239136Q861.306840908754 295.2503844150373 855.1177289805049 295.2503844150373L855.1177289805049 295.2503844150373Q840.8770408863394 295.2503844150373 827.2667253033845 299.17588596212113L827.2667253033845 299.17588596212113Q826.6363527921739 301.0383501997886 826.6363527921739 302.70024136570737L826.6363527921739 302.70024136570737Q826.6363527921739 305.1644248186213 827.4672983751333 306.5970896168271L827.4672983751333 306.5970896168271L841.7079864692988 306.19594347332946ZM867.495952837003 354.4767471728645Q887.295380348207 348.68878138811317 896.3784751688316 348.68878138811317L896.3784751688316 348.68878138811317Q907.9257534423704 348.68878138811317 907.9257534423704 357.14150369752736L907.9257534423704 357.14150369752736L907.9257534423704 421.0956602894337Q908.1263265141191 426.88362607418503 905.5475298773487 430.09279522216605Q902.9687332405782 433.27331107418286 896.9801943840781 434.6200159844964Q890.9916555275779 435.9667208948098 879.874176693501 435.9667208948098L879.874176693501 435.9667208948098Q872.4243197428309 435.9667208948098 869.9601362899169 432.6715918589365Q867.495952837003 429.347809527099 867.495952837003 420.0641416347255L867.495952837003 420.0641416347255L867.495952837003 354.4767471728645ZM1045.948680101516 358.60282179169724Q1045.948680101516 349.72030004282135 1043.4558433526377 344.99250620874227Q1040.9916598997238 340.236059078699 1035.318307298829 338.2876349531391Q1029.6449546979343 336.31055753161513 1019.1291950791035 336.31055753161513L1019.1291950791035 336.31055753161513Q987.553262926648 336.31055753161513 972.9114286889848 341.26757773340717L972.9114286889848 341.26757773340717Q958.4701675230705 346.42517100694806 958.4701675230705 359.2045410069436L958.4701675230705 359.2045410069436L958.4701675230705 422.3564053118548Q958.4701675230705 431.2102737647666 961.0489641598409 435.9667208948098Q963.6277607966114 440.69451472888886 969.3870732853985 442.7575520383052Q975.1750390701501 444.8205893477216 985.6907986889804 444.8205893477216L985.6907986889804 444.8205893477216Q1017.4673039131849 444.8205893477216 1031.7079920073502 439.6629960741807L1031.7079920073502 439.6629960741807Q1045.948680101516 434.30482972889104 1045.948680101516 421.926605872393L1045.948680101516 421.926605872393L1045.948680101516 358.60282179169724ZM1022.4243241149769 421.0956602894337Q1022.6248971867257 429.14723645535025 1017.4673039131849 432.44236549122354L1017.4673039131849 432.44236549122354Q1012.5102837113928 435.5369214553481 994.3727473661075 435.9667208948098L994.3727473661075 435.9667208948098Q986.9228904154375 435.9667208948098 984.4587069625235 432.6715918589365Q981.9945235096096 429.347809527099 981.9945235096096 420.0641416347255L981.9945235096096 420.0641416347255L981.9945235096096 360.03548658990303Q981.7652971418967 351.7833373522377 987.3526898548993 348.28763524461556L987.3526898548993 348.28763524461556Q992.5102831284399 344.99250620874227 1010.4472464019765 344.99250620874227L1010.4472464019765 344.99250620874227Q1017.266730841436 344.99250620874227 1019.8455274782065 348.37359513250794Q1022.4243241149769 351.7833373522377 1022.4243241149769 361.0670052446112L1022.4243241149769 361.0670052446112L1022.4243241149769 421.0956602894337ZM1070.2753283750503 437.59995876476444Q1070.2753283750503 441.5254603118482 1070.991660774153 442.9867784060182Q1071.73664646922 444.41944320422397 1074.000256850385 444.2188701324751L1074.000256850385 444.2188701324751L1089.6736097427565 443.58849762126454Q1092.3670195633836 443.1873514777669 1093.0833519624862 441.95525975131Q1093.7996843615892 440.69451472888886 1093.7996843615892 437.1988126212667L1093.7996843615892 437.1988126212667L1093.7996843615892 426.6830530024363Q1093.7996843615892 422.7575514553524 1093.0833519624862 421.32488665714664Q1092.3670195633836 419.86356856297675 1090.074755886254 420.0641416347255L1090.074755886254 420.0641416347255L1074.401402993883 420.69451414593607Q1071.73664646922 421.0956602894337 1070.991660774153 422.3564053118548Q1070.2753283750503 423.58849703831174 1070.2753283750503 427.0841991459339L1070.2753283750503 427.0841991459339L1070.2753283750503 437.59995876476444ZM1120.218023240504 312.7862015450761Q1119.7882238010425 319.8062590562845 1123.5131522763772 319.4051129127869L1123.5131522763772 319.4051129127869L1139.5876513122462 318.7747404015763Q1142.2810611328732 318.3735942580787 1142.9973935319763 317.14150253162165Q1143.713725931079 315.88075750920063 1143.713725931079 312.3850554015785L1143.713725931079 312.3850554015785L1143.713725931079 301.869295782748Q1144.1435253705408 294.84923827153966 1140.4185968952056 295.2503844150373L1140.4185968952056 295.2503844150373L1124.3440978593367 295.8807569262478Q1121.6506880387096 296.28190306974545 1120.934355639607 297.5426480921665Q1120.218023240504 298.7747398186235 1120.218023240504 302.2704419262456L1120.218023240504 302.2704419262456L1120.218023240504 312.7862015450761ZM1164.5733253929552 441.12431416835057Q1165.175044608202 439.26184993068307 1165.175044608202 437.59995876476444L1165.175044608202 437.59995876476444Q1165.175044608202 435.13577531185035 1164.344099025242 433.70311051364456L1164.344099025242 433.70311051364456L1149.902837859328 433.70311051364456Q1147.8398005499116 433.70311051364456 1147.8398005499116 422.7575514553524L1147.8398005499116 422.7575514553524L1147.8398005499116 345.193079280491Q1148.0690269176243 340.86643158990955 1147.3240412225573 339.08992724013444Q1146.6077088234547 337.3420761863233 1144.1435253705408 336.8263168589692Q1141.6506886216625 336.31055753161513 1135.4615766934135 336.31055753161513L1135.4615766934135 336.31055753161513Q1121.2495418952121 336.31055753161513 1107.610573016293 340.236059078699L1107.610573016293 340.236059078699Q1107.0088538010468 342.0985233163665 1107.0088538010468 343.73176118632114L1107.0088538010468 343.73176118632114Q1107.0088538010468 346.2245979351992 1107.8397993840058 347.657262733405L1107.8397993840058 347.657262733405L1122.0518341822076 347.2561165899074Q1124.3440978593367 347.2561165899074 1124.3440978593367 358.60282179169724L1124.3440978593367 358.60282179169724L1124.3440978593367 436.16729396655865Q1124.114871491624 440.4939416571401 1124.8598571866905 442.24179271095113Q1125.5761895857936 444.01829706072635 1128.0403730387075 444.53405638808033Q1130.5332097875857 445.0498157154344 1136.7223217158348 445.0498157154344L1136.7223217158348 445.0498157154344Q1150.9343565140362 445.0498157154344 1164.5733253929552 441.12431416835057L1164.5733253929552 441.12431416835057ZM1268.1263370072693 358.60282179169724Q1268.1263370072693 349.72030004282135 1265.6621535543554 344.99250620874227Q1263.1693168054776 340.236059078699 1257.4959642045824 338.2876349531391Q1251.8226116036876 336.31055753161513 1241.306851984857 336.31055753161513L1241.306851984857 336.31055753161513Q1209.7309198324015 336.31055753161513 1195.0890855947387 341.26757773340717L1195.0890855947387 341.26757773340717Q1180.6478244288242 346.42517100694806 1180.6478244288242 359.2045410069436L1180.6478244288242 359.2045410069436L1180.6478244288242 422.3564053118548Q1180.6478244288242 431.2102737647666 1183.2266210655944 435.9667208948098Q1185.805417702365 440.69451472888886 1191.5933834871166 442.7575520383052Q1197.3526959759038 444.8205893477216 1207.8971088906983 444.8205893477216L1207.8971088906983 444.8205893477216Q1239.6449608189382 444.8205893477216 1253.885648913104 439.6629960741807L1253.885648913104 439.6629960741807Q1268.1263370072693 434.30482972889104 1268.1263370072693 421.926605872393L1268.1263370072693 421.926605872393L1268.1263370072693 358.60282179169724ZM1244.6019810207304 421.0956602894337Q1244.802554092479 429.14723645535025 1239.6449608189382 432.44236549122354L1239.6449608189382 432.44236549122354Q1234.7165939131105 435.5369214553481 1216.5504042718612 435.9667208948098L1216.5504042718612 435.9667208948098Q1209.1292006171552 435.9667208948098 1206.636363868277 432.6715918589365Q1204.172180415363 429.347809527099 1204.172180415363 420.0641416347255L1204.172180415363 420.0641416347255L1204.172180415363 360.03548658990303Q1203.9716073436143 351.7833373522377 1209.5303467606527 348.28763524461556L1209.5303467606527 348.28763524461556Q1214.6879400341936 344.99250620874227 1232.6535566036941 344.99250620874227L1232.6535566036941 344.99250620874227Q1239.4443877471895 344.99250620874227 1242.0231843839601 348.37359513250794Q1244.6019810207304 351.7833373522377 1244.6019810207304 361.0670052446112L1244.6019810207304 361.0670052446112L1244.6019810207304 421.0956602894337Z " fill="#f6b042" transform="matrix(0.6899943297829246,0,0,0.6899943297829247,0,44.66773646714695)"/>
  </g>
</svg>